<svg id="Layer_1" data-name="Layer 1" xmlns="http://www.w3.org/2000/svg" viewBox="0 0 304.408 40"><defs><style>.cls-1{fill:#ee832b;}</style></defs><title>decorative-line</title><path class="cls-1" d="M17.912,26.649c1.714-1.005,3.451-1.907,5.187-2.839a51.442,51.442,0,0,1,13.363-5.222,27.68,27.68,0,0,1,8.8-.125,28.1,28.1,0,0,1,7.729,3.019c2.176,1.376,4.263,2.974,6.369,4.547q1.48,1.107,2.965,2.2a81.044,81.044,0,0,0,7.048,4.61,46,46,0,0,0,13.145,5.205,49.1,49.1,0,0,0,7.04,1.133,32.995,32.995,0,0,0,7.545-.334,54.475,54.475,0,0,0,7.311-1.645c0.907-.266,1.8-0.627,2.706-0.939,1.654-.573,3.275-1.267,4.908-1.958a101.139,101.139,0,0,0,9.289-4.763c2.3-1.274,4.568-2.675,6.826-4.081q3.341-2.079,6.678-4.173c4.63-2.748,9.31-5.446,14.286-6.608a28.572,28.572,0,0,1,8.964.12,19.817,19.817,0,0,1,4.893,1.8,47.781,47.781,0,0,1,7.6,7.2c1.2,1.284,2.393,2.594,3.616,3.833,1.427,1.441,2.852,2.869,4.307,4.248a30.542,30.542,0,0,0,3.879,3.172,26.291,26.291,0,0,0,7.028,3.311,43.69,43.69,0,0,0,6.912,1.473,23.919,23.919,0,0,0,7.438-.262,39.365,39.365,0,0,0,7.182-1.95c1.157-.435,2.276-0.98,3.406-1.532l2.522-1.235c0.764-.374,1.507-0.9,2.252-1.34l2.227-1.327c1.1-.656,2.16-1.382,3.233-2.113,3.165-2.155,6.272-4.467,9.413-6.686,1.618-1.144,3.235-2.285,4.866-3.39,1.378-.936,2.768-1.817,4.165-2.69a34.882,34.882,0,0,1,7.647-3.347,15.87,15.87,0,0,1,4.079.156c1.62,0.353,3.238.8,4.842,1.259q2.493,0.716,4.994,1.342c2.1,0.531,4.206.96,6.325,1.342a44.733,44.733,0,0,0,5.1.535,46.982,46.982,0,0,0,4.767-.085c1.627-.055,3.26-0.309,4.883-0.491,3.238-.358,6.472-1.024,9.687-1.655q4.538-.889,9.071-1.814a0.011,0.011,0,0,0,0-.012l0,0c-3.206-.75-6.407-1.558-9.61-2.325-2.965-.719-5.936-1.393-8.9-2.138-3.263-.817-6.542-1.538-9.77-2.6q-1.32-.435-2.641-0.85c-0.869-.273-1.725-0.685-2.582-1.015-1.612-.627-3.209-1.327-4.817-1.982-1.409-.578-2.82-1.2-4.25-1.671q-1.451-.477-2.908-0.918A25.623,25.623,0,0,0,252.988.019Q252.66,0,252.333,0a17.2,17.2,0,0,0-6.779,1.64c-0.859.374-1.707,0.811-2.56,1.216-0.749.354-1.476,0.85-2.209,1.274-0.984.566-1.954,1.165-2.914,1.811-5.966,4.017-11.644,8.827-17.586,12.917-0.969.668-1.927,1.369-2.92,1.965l-2.908,1.743-3.714,1.827a31.956,31.956,0,0,1-7.377,2.511,24.141,24.141,0,0,1-7.556.054,31.242,31.242,0,0,1-8.5-2.874,36.884,36.884,0,0,1-5.983-5.052c-1.416-1.436-2.823-2.876-4.217-4.356q-2.025-2.151-4.045-4.312a33.869,33.869,0,0,0-5.042-4.531,20.312,20.312,0,0,0-6.941-3.155,34.734,34.734,0,0,0-7.17-.952,27.714,27.714,0,0,0-7.928,1.01,43.1,43.1,0,0,0-6.8,2.73c-0.808.37-1.6,0.85-2.388,1.274-0.609.324-1.217,0.647-1.818,1-1.806,1.061-3.617,2.11-5.412,3.214Q126.238,13,122.9,15.029c-8.312,4.8-16.771,9.428-25.692,11.305a36.87,36.87,0,0,1-5.907.523,32.08,32.08,0,0,1-5.741-.551A48.916,48.916,0,0,1,71.142,20.7c-2.79-1.726-5.489-3.714-8.2-5.664L60.116,13A46.835,46.835,0,0,0,54.8,9.752,25.79,25.79,0,0,0,48.492,7.4a23.3,23.3,0,0,0-8.019-.582A29.039,29.039,0,0,0,29.225,10.8q-1.184.691-2.368,1.393c-1.049.622-2.057,1.348-3.077,2.06-1.5,1.048-2.939,2.2-4.39,3.369-2.994,2.419-5.851,5.15-8.712,7.87-0.449.425-.869,0.939-1.3,1.416Q7.812,28.64,6.259,30.4q-1.459,1.641-2.9,3.318C2.2,35.046,1.106,36.482,0,37.9c0,0,0,.013.006,0.011,1.281-.868,2.549-1.781,3.848-2.6q1.482-.927,2.96-1.878,2.692-1.729,5.368-3.516Q15.059,28.323,17.912,26.649Z" transform="translate(0 0)"/></svg>